<svg width="20" height="20" viewBox="0 0 20 20" fill="none" xmlns="http://www.w3.org/2000/svg">
<path fill-rule="evenodd" clip-rule="evenodd" d="M9.58317 2.29163C5.55609 2.29163 2.2915 5.55622 2.2915 9.58329C2.2915 13.6104 5.55609 16.875 9.58317 16.875C13.6102 16.875 16.8748 13.6104 16.8748 9.58329C16.8748 5.55622 13.6102 2.29163 9.58317 2.29163ZM1.0415 9.58329C1.0415 4.86586 4.86574 1.04163 9.58317 1.04163C14.3006 1.04163 18.1248 4.86586 18.1248 9.58329C18.1248 11.7171 17.3424 13.6681 16.0489 15.1651L18.7751 17.8914C19.0192 18.1354 19.0192 18.5312 18.7751 18.7752C18.531 19.0193 18.1353 19.0193 17.8912 18.7752L15.165 16.049C13.668 17.3426 11.7169 18.125 9.58317 18.125C4.86574 18.125 1.0415 14.3007 1.0415 9.58329Z" fill="#A3A3A3"/>
</svg>
