<svg width="10" height="14" viewBox="0 0 10 14" fill="none" xmlns="http://www.w3.org/2000/svg">
<path d="M1.354 0.583374C1.59563 0.583374 1.7915 0.779249 1.7915 1.02087V2.10004L2.79523 1.8993C3.75804 1.70673 4.75607 1.79837 5.66771 2.16302L5.7865 2.21054C6.69718 2.57481 7.69949 2.64284 8.65103 2.40495C9.09277 2.29452 9.52067 2.62861 9.52067 3.08394V7.38137C9.52067 7.75721 9.26488 8.08482 8.90026 8.17598L8.77515 8.20725C7.74292 8.46531 6.65561 8.39152 5.66771 7.99636C4.75607 7.6317 3.75804 7.54007 2.79523 7.73263L1.7915 7.93337V12.6875C1.7915 12.9292 1.59563 13.125 1.354 13.125C1.11238 13.125 0.916504 12.9292 0.916504 12.6875V1.02087C0.916504 0.779249 1.11238 0.583374 1.354 0.583374Z" fill="white"/>
</svg>
